<?xml version="1.0" encoding="UTF-8"?> <svg xmlns="http://www.w3.org/2000/svg" width="515" height="388" viewBox="0 0 515 388" fill="none"><g clip-path="url(#clip0)"><path opacity="0.1" d="M294.036 62.1504C261.593 61.0225 230.694 50.5504 201.183 39.0908C171.672 27.6312 142.452 14.9385 110.785 8.86276C90.4176 4.95768 67.1277 4.40625 50.7155 15.3245C34.9249 25.8516 29.8217 43.9734 27.0747 60.8069C25.0144 73.4696 23.8012 86.799 29.4558 98.6547C33.3809 106.886 40.3538 113.804 45.1762 121.684C61.9494 149.115 50.0939 182.962 31.9221 209.727C23.4002 222.294 13.5048 234.29 6.92282 247.654C0.340884 261.019 -2.70194 276.354 3.05286 289.999C8.76255 303.534 22.3625 313.68 37.0955 320.823C67.0124 335.361 102.263 339.487 136.657 341.838C212.762 347.046 289.279 344.79 365.586 342.535C393.828 341.697 422.191 340.85 449.978 336.484C465.402 334.063 481.333 330.213 492.532 320.944C506.749 309.148 510.273 289.177 500.748 274.384C484.767 249.574 440.594 243.414 429.41 216.79C423.259 202.132 429.575 185.81 438.508 172.215C457.678 143.059 489.805 117.478 491.5 84.1522C492.663 61.2631 477.218 38.3389 453.336 27.5059C428.302 16.1566 393.593 17.5853 375.135 36.3738C356.096 55.6987 322.67 63.153 294.036 62.1504Z" fill="#EBBC76"></path><path opacity="0.1" d="M290.644 378.056C393.352 378.056 476.613 371.866 476.613 364.231C476.613 356.595 393.352 350.405 290.644 350.405C187.937 350.405 104.676 356.595 104.676 364.231C104.676 371.866 187.937 378.056 290.644 378.056Z" fill="#EBBC76"></path><path d="M146.848 319.45C146.848 319.45 157.375 317.766 163.691 325.21C163.691 325.21 159.059 328.859 149.093 323.806L146.848 319.45Z" fill="#EBBC76"></path><path d="M145.715 319.315C145.715 319.315 139.003 327.596 142.296 336.785C142.296 336.785 147.77 334.589 148.367 323.43L145.715 319.315Z" fill="#EBBC76"></path><path d="M139.699 305.695C139.699 305.695 143.91 297.975 160.753 308.783C160.753 308.783 158.508 313.976 151.068 313.555C143.629 313.134 141.654 309.79 139.699 305.695Z" fill="#EBBC76"></path><path d="M138.6 305.138C138.6 305.138 129.863 304.136 129.016 324.142C129.016 324.142 134.555 325.29 138.49 318.964C142.425 312.637 140.801 309.088 138.6 305.138Z" fill="#EBBC76"></path><path d="M133.512 289.187C133.512 289.187 138.424 275.572 156.25 285.257C156.25 285.257 152.18 297.749 135.336 293.819L133.512 289.187Z" fill="#EBBC76"></path><path d="M128.035 268.834C128.035 268.834 137.304 255.074 153.726 267.832C153.726 267.832 147.971 280.745 129.439 273.727L128.035 268.834Z" fill="#EBBC76"></path><path d="M126.07 249.459C126.07 249.459 136.883 236.827 153.165 249.459C153.165 249.459 142.919 260.548 126.07 252.688V249.459Z" fill="#EBBC76"></path><path d="M124.387 230.651C124.387 230.651 135.34 217.457 150.92 229.949C150.92 229.949 138.568 241.599 124.387 233.739V230.651Z" fill="#EBBC76"></path><path d="M125.367 213.948C125.367 213.948 136.897 196.959 151.479 208.473C151.479 208.473 139.128 223.071 125.367 217.176V213.948Z" fill="#EBBC76"></path><path d="M128.035 194.432C128.035 194.432 140.252 177.589 154.428 190.502C154.428 190.502 139.971 205.105 128.035 197.52V194.432Z" fill="#EBBC76"></path><path d="M132.108 176.992C132.108 176.992 146.565 161.166 159.178 167.468C159.178 167.468 144.109 184.276 131.477 181.188L132.108 176.992Z" fill="#EBBC76"></path><path d="M137.164 160.464C137.164 160.464 153.866 141.094 163.551 147.551C163.551 147.551 151.26 162.59 135.98 164.094L137.164 160.464Z" fill="#EBBC76"></path><path d="M144.456 141.29C144.456 141.29 159.059 125.459 169.726 129.389C169.726 129.389 157.234 145.812 142.496 146.233L144.456 141.29Z" fill="#EBBC76"></path><path d="M151.057 123.354C151.057 123.354 167.199 108.189 174.217 110.856C174.217 110.856 162.567 127.705 150.355 126.722L151.057 123.354Z" fill="#EBBC76"></path><path d="M157.516 106.766C157.516 106.766 171.411 88.6591 178.991 90.0627C178.991 90.0627 170.569 106.204 157.516 108.611V106.766Z" fill="#EBBC76"></path><path d="M164.522 84.458C164.522 84.458 176.804 70.5722 183.436 70.6072C183.436 70.6072 173.741 89.1551 164.016 88.9847L164.522 84.458Z" fill="#EBBC76"></path><path d="M168.673 69.5899L180.533 40.6702C180.533 40.6702 181.13 66.8127 167.164 74.9537L168.673 69.5899Z" fill="#EBBC76"></path><path d="M173.491 37.6973C173.491 37.6973 175.457 13.5549 174.193 11.5898C174.193 11.5898 182.675 31.6416 173.406 48.3648L173.491 37.6973Z" fill="#EBBC76"></path><path d="M133.052 288.861C133.052 288.861 120.751 281.236 112.785 299.889C112.785 299.889 123.733 307.153 134.496 293.618L133.052 288.861Z" fill="#EBBC76"></path><path d="M127.67 268.057C127.67 268.057 112.582 261.175 105.258 280.65C105.258 280.65 116.918 288.671 129.044 272.98L127.67 268.057Z" fill="#EBBC76"></path><path d="M125.367 250.637C125.367 250.637 114.559 238.005 98.2969 250.637C98.2969 250.637 108.543 261.726 125.367 253.866V250.637Z" fill="#EBBC76"></path><path d="M124.022 230.651C124.022 230.651 113.073 217.457 97.4883 229.949C97.4883 229.949 109.845 241.599 124.022 233.739V230.651Z" fill="#EBBC76"></path><path d="M125.369 214.429C125.369 214.429 117.689 195.38 100.996 203.586C100.996 203.586 110.019 220.454 124.692 217.582L125.369 214.429Z" fill="#EBBC76"></path><path d="M129.001 194.337C129.001 194.337 121.371 174.982 104.438 183.96C104.438 183.96 114.804 201.701 128.249 197.33L129.001 194.337Z" fill="#EBBC76"></path><path d="M133.735 177.092C133.735 177.092 130.728 155.873 116.691 153.973C116.691 153.973 119.664 176.351 131.84 180.917L133.735 177.092Z" fill="#EBBC76"></path><path d="M137.52 160.5C137.52 160.5 136.347 134.934 124.742 134.046C124.742 134.046 125.133 153.451 136.212 164.124L137.52 160.5Z" fill="#EBBC76"></path><path d="M145.659 140.558C145.659 140.558 142.195 119.298 131.121 116.696C131.121 116.696 132.495 137.29 144.566 145.772L145.659 140.558Z" fill="#EBBC76"></path><path d="M152.372 123.504C152.372 123.504 152.251 101.362 145.489 98.1034C145.489 98.1034 141.288 118.155 150.412 126.331L152.372 123.504Z" fill="#EBBC76"></path><path d="M158.031 106.54C158.031 106.54 157.083 83.7362 150.075 80.5229C150.075 80.5229 147.674 98.5696 156.978 108.034L158.031 106.54Z" fill="#EBBC76"></path><path d="M165.503 86.2728C165.503 86.2728 165.458 67.7249 160.46 63.3787C160.46 63.3787 155.483 83.6961 162.892 90.0074L165.503 86.2728Z" fill="#EBBC76"></path><path d="M168.082 68.6675L163.219 37.7927C163.219 37.7927 156.607 63.0881 168.317 74.2318L168.082 68.6675Z" fill="#EBBC76"></path><path d="M169.037 37.9932C169.037 37.9932 156.545 17.2395 156.801 14.9336C156.801 14.9336 158.129 36.6848 173.845 47.5178L169.037 37.9932Z" fill="#EBBC76"></path><path d="M170.499 31.8623C170.499 31.8623 158.709 2.38618 153.375 -0.0100098C153.375 -0.0100098 170.218 8.5521 171.482 31.0101L170.499 31.8623Z" fill="#EBBC76"></path><path d="M163.951 89.1602L163.148 88.9095C173.099 56.4657 175.58 35.7723 170.136 30.5889L170.718 29.9773C176.488 35.4514 174.147 55.9143 163.951 89.1602Z" fill="#444053"></path><path d="M136.556 165.111L135.363 164.69C136.416 161.718 137.559 158.7 138.752 155.727C149.139 129.825 157.976 105.763 163.646 87.2703L164.684 86.769C159.004 105.262 150.322 130.276 139.925 156.198C138.737 159.156 137.604 162.154 136.556 165.111Z" fill="#444053"></path><path d="M161.661 343.738C161.501 343.557 145.369 325.4 134.13 294.39C127.539 276.24 123.868 257.159 123.252 237.859C122.485 213.732 127.543 186.787 136.221 162.319L137.163 163.422C117.693 218.344 125.428 265.41 135.689 293.749C146.813 324.473 162.759 342.434 162.914 342.615L161.661 343.738Z" fill="#444053"></path><path d="M91.3751 339.778C91.3751 339.778 72.301 338.63 74.5518 351.994C74.5518 351.994 74.1057 354.355 76.2462 355.428C76.2462 355.428 76.2762 354.425 78.2012 354.771C78.8849 354.886 79.5799 354.92 80.2715 354.872C81.2078 354.809 82.0982 354.443 82.808 353.829C82.808 353.829 88.1668 351.613 90.2522 342.851C90.2522 342.851 91.7962 340.941 91.731 340.449L88.5127 341.823C88.5127 341.823 89.6155 344.144 88.7483 346.074C88.7483 346.074 88.6431 341.908 88.0265 342.003C87.9011 342.003 86.3521 342.81 86.3521 342.81C86.3521 342.81 88.247 346.856 86.8184 349.793C86.8184 349.793 87.3598 344.811 85.7656 343.101L83.4998 344.425C83.4998 344.425 85.7105 348.6 84.2116 352.009C84.2116 352.009 84.5926 346.781 83.0236 344.745L80.9683 346.35C80.9683 346.35 83.0436 350.465 81.7804 353.293C81.7804 353.293 81.615 347.207 80.5222 346.746C80.5222 346.746 78.7275 348.33 78.4518 348.981C78.4518 348.981 79.8755 351.989 78.9932 353.548C78.9932 353.548 78.4518 349.493 77.9906 349.473C77.9906 349.473 76.201 352.16 76.0156 353.984C76.1022 352.283 76.6328 350.634 77.5545 349.202C76.5231 349.397 75.5715 349.89 74.8175 350.621C74.8175 350.621 75.0932 348.721 77.9957 348.555C77.9957 348.555 79.4995 346.515 79.8705 346.39C79.8705 346.39 76.9831 346.149 75.2335 346.926C75.2335 346.926 76.7725 345.136 80.4019 345.923L82.407 344.269C82.407 344.269 78.6072 343.768 76.9931 344.324C76.9931 344.324 78.8479 342.74 82.9534 343.893L85.1591 342.575C85.1591 342.575 81.9208 341.878 79.9858 342.129C79.9858 342.129 82.026 341.031 85.8057 342.219L87.3848 341.512C87.3848 341.512 85.0087 341.046 84.3169 340.971C83.6251 340.895 83.58 340.705 83.58 340.705C85.0849 340.455 86.6297 340.628 88.0415 341.206C88.0415 341.206 91.4302 339.988 91.3751 339.778Z" fill="#EBBC76"></path><path d="M35.9296 345.979C35.9296 345.979 16.8806 344.831 19.1114 358.195C19.1114 358.195 18.6602 360.556 20.8007 361.629C20.8007 361.629 20.8358 360.626 22.7608 360.972C23.4442 361.09 24.1395 361.123 24.8311 361.072C25.7661 361.011 26.6552 360.644 27.3626 360.03C27.3626 360.03 32.7264 357.814 34.8118 349.051C34.8118 349.051 36.3507 347.142 36.3156 346.65L33.0974 348.024C33.0974 348.024 34.2002 350.345 33.333 352.275C33.333 352.275 33.2277 348.109 32.6111 348.204C32.4858 348.204 30.9368 349.011 30.9368 349.011C30.9368 349.011 32.8317 353.057 31.403 355.994C31.403 355.994 31.9444 351.012 30.3453 349.302L28.0794 350.626C28.0794 350.626 30.2901 354.801 28.7913 358.21C28.7913 358.21 29.1773 352.982 27.6032 350.946L25.5529 352.55C25.5529 352.55 27.6283 356.666 26.365 359.493C26.365 359.493 26.1996 353.408 25.1068 352.947C25.1068 352.947 23.3122 354.531 23.0365 355.182C23.0365 355.182 24.4601 358.19 23.5779 359.749C23.5779 359.749 23.0365 355.694 22.5753 355.674C22.5753 355.674 20.7907 358.361 20.6002 360.185C20.6898 358.484 21.222 356.835 22.1442 355.403C21.1114 355.598 20.1584 356.092 19.4021 356.822C19.4021 356.822 19.6828 354.922 22.5853 354.756C22.5853 354.756 24.0892 352.716 24.4601 352.596C24.4601 352.596 21.5727 352.35 19.8232 353.127C19.8232 353.127 21.3622 351.337 24.9915 352.124L26.9966 350.47C26.9966 350.47 23.1969 349.969 21.5827 350.525C21.5827 350.525 23.4375 348.941 27.5431 350.094L29.7487 348.776C29.7487 348.776 26.5054 348.079 24.5754 348.33C24.5754 348.33 26.6157 347.232 30.3954 348.42L31.9745 347.713C31.9745 347.713 29.5983 347.247 28.9016 347.172C28.2048 347.096 28.1697 346.906 28.1697 346.906C29.6746 346.659 31.2186 346.832 32.6311 347.407C32.6311 347.407 35.9697 346.189 35.9296 345.979Z" fill="#EBBC76"></path><path d="M66.8323 360.536C66.8323 360.536 47.7833 359.388 50.009 372.753C50.009 372.753 49.5629 375.114 51.7034 376.187C51.7034 376.187 51.7385 375.184 53.6584 375.53C54.3438 375.645 55.0404 375.679 55.7337 375.63C56.6683 375.566 57.5567 375.2 58.2653 374.587C58.2653 374.587 63.624 372.372 65.7094 363.609C65.7094 363.609 67.2534 361.699 67.2133 361.208L63.995 362.581C63.995 362.581 65.0928 364.902 64.2306 366.832C64.2306 366.832 64.1253 362.667 63.5037 362.762C63.3784 362.762 61.8344 363.569 61.8344 363.569C61.8344 363.569 63.7243 367.609 62.2956 370.552C62.2956 370.552 62.837 365.569 61.2429 363.86L58.9771 365.183C58.9771 365.183 61.1878 369.359 59.6889 372.768C59.6889 372.768 60.0749 367.539 58.5009 365.504L56.4456 367.108C56.4456 367.108 58.5259 371.224 57.2577 374.051C57.2577 374.051 57.0922 367.965 56.0044 367.504C56.0044 367.504 54.2048 369.088 53.9341 369.74C53.9341 369.74 55.3578 372.748 54.4705 374.307C54.4705 374.307 53.9291 370.251 53.4679 370.231C53.4679 370.231 51.6783 372.918 51.4928 374.743C51.5795 373.042 52.1101 371.393 53.0318 369.961C52.0004 370.156 51.0488 370.649 50.2947 371.379C50.2947 371.379 50.5705 369.479 53.4779 369.314C53.4779 369.314 54.9517 367.274 55.3477 367.148C55.3477 367.148 52.4603 366.908 50.7108 367.685C50.7108 367.685 52.2548 365.895 55.8791 366.707L57.8843 365.053C57.8843 365.053 54.0845 364.552 52.4703 365.108C52.4703 365.108 54.3301 363.524 58.4307 364.677L60.6414 363.358C60.6414 363.358 57.4181 362.677 55.4831 362.927C55.4831 362.927 57.5183 361.829 61.3031 363.018L62.8771 362.311C62.8771 362.311 60.506 361.845 59.8092 361.769C59.1124 361.694 59.0773 361.504 59.0773 361.504C60.5822 361.253 62.127 361.427 63.5388 362.005C63.5388 362.005 66.8874 360.747 66.8323 360.536Z" fill="#EBBC76"></path><path opacity="0.1" d="M51.9646 379.871C59.4203 379.871 65.4643 378.85 65.4643 377.59C65.4643 376.331 59.4203 375.309 51.9646 375.309C44.5089 375.309 38.4648 376.331 38.4648 377.59C38.4648 378.85 44.5089 379.871 51.9646 379.871Z" fill="#EBBC76"></path><path opacity="0.1" d="M480.156 379.871C487.612 379.871 493.656 378.85 493.656 377.59C493.656 376.331 487.612 375.309 480.156 375.309C472.7 375.309 466.656 376.331 466.656 377.59C466.656 378.85 472.7 379.871 480.156 379.871Z" fill="#EBBC76"></path><path opacity="0.1" d="M501.504 360.1C508.959 360.1 515.003 359.079 515.003 357.819C515.003 356.56 508.959 355.538 501.504 355.538C494.048 355.538 488.004 356.56 488.004 357.819C488.004 359.079 494.048 360.1 501.504 360.1Z" fill="#EBBC76"></path><path opacity="0.1" d="M78.2341 358.676C85.6898 358.676 91.7338 357.655 91.7338 356.396C91.7338 355.136 85.6898 354.115 78.2341 354.115C70.7784 354.115 64.7344 355.136 64.7344 356.396C64.7344 357.655 70.7784 358.676 78.2341 358.676Z" fill="#EBBC76"></path><path opacity="0.1" d="M22.7771 365.078C30.2328 365.078 36.2768 364.057 36.2768 362.797C36.2768 361.537 30.2328 360.516 22.7771 360.516C15.3214 360.516 9.27734 361.537 9.27734 362.797C9.27734 364.057 15.3214 365.078 22.7771 365.078Z" fill="#EBBC76"></path><path d="M363.08 39.9731H156.674C153.961 39.9731 151.762 42.1726 151.762 44.8858V356.581C151.762 359.294 153.961 361.494 156.674 361.494H363.08C365.794 361.494 367.993 359.294 367.993 356.581V44.8858C367.993 42.1726 365.794 39.9731 363.08 39.9731Z" fill="#3A3768"></path><path opacity="0.1" d="M336.234 67.6096H186.193C178.107 67.6096 171.551 74.1654 171.551 82.2524V116.175C171.551 124.262 178.107 130.818 186.193 130.818H336.234C344.321 130.818 350.877 124.262 350.877 116.175V82.2524C350.877 74.1654 344.321 67.6096 336.234 67.6096Z" fill="black"></path><path d="M344.199 68.8428H177.816C174.992 68.8428 172.703 71.132 172.703 73.956V124.862C172.703 127.686 174.992 129.976 177.816 129.976H344.199C347.023 129.976 349.313 127.686 349.313 124.862V73.956C349.313 71.132 347.023 68.8428 344.199 68.8428Z" fill="#E6E8EC"></path><path opacity="0.1" d="M208.05 157.146H183.206C180.219 157.146 177.797 159.568 177.797 162.555V191.359C177.797 194.347 180.219 196.768 183.206 196.768H208.05C211.037 196.768 213.459 194.347 213.459 191.359V162.555C213.459 159.568 211.037 157.146 208.05 157.146Z" fill="black"></path><path opacity="0.1" d="M251.64 157.146H226.796C223.808 157.146 221.387 159.568 221.387 162.555V191.359C221.387 194.347 223.808 196.768 226.796 196.768H251.64C254.627 196.768 257.048 194.347 257.048 191.359V162.555C257.048 159.568 254.627 157.146 251.64 157.146Z" fill="black"></path><path opacity="0.1" d="M295.225 157.146H270.382C267.394 157.146 264.973 159.568 264.973 162.555V191.359C264.973 194.347 267.394 196.768 270.382 196.768H295.225C298.213 196.768 300.634 194.347 300.634 191.359V162.555C300.634 159.568 298.213 157.146 295.225 157.146Z" fill="black"></path><path opacity="0.1" d="M329.763 157.988H323.016C315.031 157.988 308.559 164.461 308.559 172.445V183.153C308.559 191.138 315.031 197.61 323.016 197.61H329.763C337.748 197.61 344.22 191.138 344.22 183.153V172.445C344.22 164.461 337.748 157.988 329.763 157.988Z" fill="black"></path><path d="M338.811 157.146H313.968C310.98 157.146 308.559 159.568 308.559 162.555V191.359C308.559 194.347 310.98 196.768 313.968 196.768H338.811C341.799 196.768 344.22 194.347 344.22 191.359V162.555C344.22 159.568 341.799 157.146 338.811 157.146Z" fill="#EBBC76"></path><path opacity="0.1" d="M208.05 200.733H183.206C180.219 200.733 177.797 203.155 177.797 206.142V234.947C177.797 237.934 180.219 240.356 183.206 240.356H208.05C211.037 240.356 213.459 237.934 213.459 234.947V206.142C213.459 203.155 211.037 200.733 208.05 200.733Z" fill="black"></path><path opacity="0.1" d="M251.64 200.733H226.796C223.808 200.733 221.387 203.155 221.387 206.142V234.947C221.387 237.934 223.808 240.356 226.796 240.356H251.64C254.627 240.356 257.048 237.934 257.048 234.947V206.142C257.048 203.155 254.627 200.733 251.64 200.733Z" fill="black"></path><path opacity="0.1" d="M295.225 200.733H270.382C267.394 200.733 264.973 203.155 264.973 206.142V234.947C264.973 237.934 267.394 240.356 270.382 240.356H295.225C298.213 240.356 300.634 237.934 300.634 234.947V206.142C300.634 203.155 298.213 200.733 295.225 200.733Z" fill="black"></path><path opacity="0.1" d="M208.05 248.848H183.206C180.219 248.848 177.797 251.269 177.797 254.257V283.061C177.797 286.048 180.219 288.47 183.206 288.47H208.05C211.037 288.47 213.459 286.048 213.459 283.061V254.257C213.459 251.269 211.037 248.848 208.05 248.848Z" fill="black"></path><path opacity="0.1" d="M251.64 248.848H226.796C223.808 248.848 221.387 251.269 221.387 254.257V283.061C221.387 286.048 223.808 288.47 226.796 288.47H251.64C254.627 288.47 257.048 286.048 257.048 283.061V254.257C257.048 251.269 254.627 248.848 251.64 248.848Z" fill="black"></path><path opacity="0.1" d="M295.225 248.848H270.382C267.394 248.848 264.973 251.269 264.973 254.257V283.061C264.973 286.048 267.394 288.47 270.382 288.47H295.225C298.213 288.47 300.634 286.048 300.634 283.061V254.257C300.634 251.269 298.213 248.848 295.225 248.848Z" fill="black"></path><path opacity="0.1" d="M295.225 296.962H270.382C267.394 296.962 264.973 299.384 264.973 302.371V331.175C264.973 334.163 267.394 336.584 270.382 336.584H295.225C298.213 336.584 300.634 334.163 300.634 331.175V302.371C300.634 299.384 298.213 296.962 295.225 296.962Z" fill="black"></path><path opacity="0.1" d="M329.763 201.576H323.016C315.031 201.576 308.559 208.048 308.559 216.033V226.741C308.559 234.725 315.031 241.198 323.016 241.198H329.763C337.748 241.198 344.22 234.725 344.22 226.741V216.033C344.22 208.048 337.748 201.576 329.763 201.576Z" fill="black"></path><path d="M338.556 200.733H314.223C311.095 200.733 308.559 203.27 308.559 206.398V234.691C308.559 237.82 311.095 240.356 314.223 240.356H338.556C341.684 240.356 344.22 237.82 344.22 234.691V206.398C344.22 203.27 341.684 200.733 338.556 200.733Z" fill="#EBBC76"></path><path opacity="0.2" d="M338.556 200.733H314.223C311.095 200.733 308.559 203.27 308.559 206.398V234.691C308.559 237.82 311.095 240.356 314.223 240.356H338.556C341.684 240.356 344.22 237.82 344.22 234.691V206.398C344.22 203.27 341.684 200.733 338.556 200.733Z" fill="black"></path><path opacity="0.1" d="M252.013 296.962H182.83C180.05 296.962 177.797 299.215 177.797 301.995V331.551C177.797 334.331 180.05 336.584 182.83 336.584H252.013C254.792 336.584 257.046 334.331 257.046 331.551V301.995C257.046 299.215 254.792 296.962 252.013 296.962Z" fill="black"></path><path opacity="0.1" d="M338.371 248.848H311.005C307.777 248.848 305.16 251.465 305.16 254.693V330.744C305.16 333.972 307.777 336.589 311.005 336.589H338.371C341.599 336.589 344.216 333.972 344.216 330.744V254.693C344.216 251.465 341.599 248.848 338.371 248.848Z" fill="black"></path><path d="M341.384 119.298H325.773V120.987H341.384V119.298Z" fill="#EBBC76"></path><path d="M318.528 119.298H302.918V120.987H318.528V119.298Z" fill="#EBBC76"></path><path d="M295.673 119.298H280.062V120.987H295.673V119.298Z" fill="#EBBC76"></path><path d="M272.817 119.298H257.207V120.987H272.817V119.298Z" fill="#EBBC76"></path><path d="M441.071 237.884C442.68 232.47 441.071 227.056 441.071 227.056V221.948C441.071 221.948 442.911 211.962 434.7 205.556L429.256 200.754C429.256 200.754 426.203 198.132 425.316 197.966C425.15 197.931 424.983 197.906 424.814 197.891L424.654 197.796C424.186 196.996 423.787 196.157 423.461 195.289C423.813 195.335 424.171 195.299 424.508 195.184C424.844 195.07 425.15 194.879 425.401 194.628C425.598 194.401 425.752 194.142 425.857 193.861C426.173 193.154 426.228 192.297 426.494 191.545C426.727 190.935 427.066 190.371 427.496 189.88C427.441 189.971 427.381 190.056 427.331 190.151C428.103 189.189 429.11 188.367 429.837 187.354C429.981 187.153 430.114 186.944 430.233 186.727C430.203 186.772 430.163 186.813 430.128 186.858C431.131 185.248 431.436 183.298 431.727 181.419C431.867 180.779 431.877 180.117 431.757 179.474C431.616 179.046 431.435 178.633 431.216 178.24C430.033 175.799 430.053 172.726 428.163 170.776C426.739 169.317 424.584 168.871 422.553 168.621C420.523 168.37 418.388 168.225 416.643 167.162C416.156 166.793 415.617 166.497 415.044 166.285C414.756 166.184 414.441 166.187 414.155 166.293C413.869 166.399 413.628 166.602 413.475 166.866C413.439 167.022 413.367 167.168 413.265 167.292C413.174 167.344 413.072 167.374 412.968 167.38C412.864 167.386 412.759 167.368 412.663 167.327L409.961 166.605L409.991 166.741H409.921L410.021 167.167C410.074 167.157 410.129 167.167 410.175 167.193C410.222 167.22 410.258 167.262 410.277 167.312L409.841 167.984C409.005 167.969 408.179 167.799 407.405 167.483C407.399 167.526 407.399 167.57 407.405 167.613H407.364C407.314 168.375 408.181 168.871 408.447 169.588C408.554 169.902 408.554 170.242 408.447 170.556C408.339 170.846 408.167 171.11 407.946 171.328C406.988 172.275 405.76 172.09 404.657 172.686C404.562 172.727 404.477 172.788 404.408 172.865C404.338 172.942 404.287 173.033 404.256 173.132C404.213 173.206 404.2 173.295 404.221 173.378C404.265 173.493 404.344 173.591 404.447 173.659C404.768 173.918 405.12 174.137 405.495 174.31C405.384 174.41 405.279 174.511 405.179 174.616C403.779 176.039 402.754 177.786 402.194 179.701C401.634 181.617 401.558 183.641 401.971 185.593C402.385 187.546 403.276 189.365 404.564 190.889C405.852 192.413 407.498 193.594 409.355 194.327C409.395 194.537 409.425 194.753 409.455 194.979C409.455 195.004 409.455 195.019 409.455 195.044L409.485 195.335L405.845 196.884C405.297 196.879 404.76 196.719 404.299 196.422C403.837 196.125 403.47 195.702 403.239 195.204C402.392 193.455 399.399 195.204 399.399 195.204C399.399 195.204 390.27 194.522 386.867 196.207C386.867 196.207 381.418 193.921 380.651 193.765C379.884 193.61 378.736 193.004 378.199 193.159C377.663 193.314 376.971 192.156 376.585 192.242C376.199 192.327 376.049 191.48 374.821 191.174C373.593 190.868 373.131 191.254 371.753 189.88C370.374 188.507 359.165 183.093 359.165 183.093L354.132 178.952L348.764 174.681L348.668 174.857C348.633 174.731 348.598 174.601 348.563 174.461C348.029 172.333 347.359 170.242 346.558 168.199C346.212 167.372 346.057 166.33 345.59 166.881C345.305 167.212 344.818 166.485 344.087 165.994C343.931 165.887 343.754 165.815 343.568 165.785C343.382 165.755 343.191 165.767 343.01 165.82C342.829 165.873 342.662 165.965 342.522 166.091C342.381 166.216 342.27 166.371 342.197 166.545C338.016 173.102 336.517 173.563 338.938 175.975C341.099 178.115 342.533 179.985 344.292 180.576L344.503 180.642C344.465 180.652 344.425 180.652 344.387 180.642L354.594 192.843C354.594 192.843 361.958 199.25 367.026 201.305C372.094 203.36 371.703 203.977 371.703 203.977C371.703 203.977 387.052 211.752 389.428 211.602C391.804 211.451 391.348 227.538 390.351 230.149C389.353 232.761 387.744 251.5 387.744 251.5C387.744 251.5 386.205 255.465 387.819 258.207C387.819 258.207 388.175 263.46 387.854 264.724C386.456 266.879 384.46 270.539 384.135 274.304C384.135 274.504 384.095 274.689 384.074 274.885C383.972 275.004 383.85 275.104 383.714 275.181L384.054 275.081C383.909 276.65 383.573 278.195 383.052 279.682C382.24 281.771 381.811 283.989 381.784 286.229V298.341L380.781 305.86C380.781 305.86 379.553 311.55 380.781 312.878C381.299 313.541 381.54 314.378 381.453 315.214C381.401 316.185 381.677 317.145 382.235 317.941C382.448 318.174 382.604 318.453 382.691 318.757C382.778 319.061 382.794 319.38 382.736 319.691C382.33 321.009 383.338 335.04 383.338 335.04C383.338 335.04 383.042 338.905 382.636 339.111C382.23 339.316 383.338 343.582 383.338 343.582C383.338 343.582 379.192 347.041 380.25 348.871L381.307 350.495L381.027 350.771L380.856 350.946C380.536 350.762 380.164 350.691 379.798 350.746C378.496 352.079 377.102 353.32 375.628 354.461C373.758 355.809 368.67 357.764 368.67 357.764L364.66 358.09H364.584C364.584 358.09 362.664 357.909 363.742 360.882C364.82 363.855 374.455 362.942 374.455 362.942L380.079 362.055C380.079 362.055 390.105 362.105 392.977 361.469C394.175 361.203 394.481 360.561 394.381 359.915L394.351 359.885C394.213 359.268 393.931 358.692 393.529 358.205C393.508 358.173 393.485 358.143 393.459 358.115L393.639 356.06C397.895 353.608 392.436 348.786 392.436 348.786C392.436 348.786 394.306 344.72 395.263 343.402C396.221 342.084 396.221 322.658 396.221 322.658C396.221 322.658 396.722 315.64 395.404 314.016C395.381 313.487 395.502 312.962 395.755 312.497C396.007 312.031 396.381 311.643 396.837 311.374C397.785 310.728 400.647 301.82 402.893 294.425L404.307 303.138C404.307 303.138 404.001 307.309 404.918 308.527C405.091 308.757 405.213 309.019 405.279 309.299C405.345 309.579 405.351 309.869 405.299 310.151C405.082 311.32 405.152 312.525 405.505 313.66C405.612 314.147 405.874 314.587 406.252 314.913C407.069 315.319 407.119 316.768 407.425 317.074C407.73 317.38 409.625 316.643 409.725 317.761C409.783 318.742 409.783 319.727 409.725 320.708L410.342 338.805C410.342 338.805 409.339 340.309 409.114 344.319C409.029 346.029 408.708 347.001 408.377 347.558C408.193 347.856 408.109 348.205 408.136 348.555C408.163 348.904 408.3 349.236 408.527 349.503L408.703 349.708L407.946 350.29C407.642 350.526 407.429 350.86 407.343 351.236C407.257 351.611 407.303 352.005 407.475 352.35C407.231 352.562 407.056 352.843 406.973 353.156C406.889 353.469 406.902 353.799 407.008 354.105C407.039 354.205 407.083 354.301 407.139 354.39C406.564 354.48 406.03 354.745 405.61 355.147C404.854 356.186 403.943 357.103 402.908 357.864C401.407 359.015 399.969 360.247 398.602 361.554C397.957 362.431 397.093 363.123 396.095 363.559C395.851 363.658 395.597 363.734 395.338 363.785C393.333 364.196 393.96 366.291 395.594 366.637C397.228 366.983 402.652 368.642 406.873 367.675C406.873 367.675 408.126 368.176 409.966 367.244C411.806 366.311 415.911 365.168 415.911 365.168C415.911 365.168 418.212 365.168 418.523 364.256C418.604 363.965 418.648 363.665 418.653 363.364L418.719 363.298L418.658 363.243C418.664 362.56 418.612 361.877 418.503 361.203C418.443 360.852 418.378 360.541 418.318 360.291C418.122 359.529 417.756 358.541 417.601 358.125C417.627 358.092 417.65 358.057 417.671 358.02C418.548 356.516 417.089 352.947 417.089 352.947C417.568 352.187 418.15 351.497 418.819 350.896C419.636 350.285 421.786 334.424 421.786 334.424C421.786 334.424 421.681 330.358 422.789 328.529C423.897 326.699 421.255 315.62 421.255 315.62C421.255 315.62 420.127 313.079 420.538 312.161C420.949 311.244 420.127 307.89 420.127 307.89V303.88C420.125 303.402 420.045 302.928 419.892 302.476C419.576 301.534 419.11 299.724 419.616 298.426C420.333 296.596 421.967 285.312 421.967 285.312C421.967 285.312 420.689 280.334 422.564 276.369C422.71 276.052 422.877 275.746 423.065 275.451C424.453 273.271 424.037 269.396 423.351 266.273C423.25 265.771 423.135 265.32 423.02 264.884C422.975 264.694 422.924 264.513 422.874 264.333L423.095 264.243C423.095 264.243 423.095 263.947 423.165 263.44C423.922 263.29 424.64 262.987 425.275 262.548C425.909 262.109 426.447 261.544 426.855 260.889C426.855 260.889 431.537 255.625 435.677 253.415C439.818 251.204 440.129 248.001 440.129 248.001C439.517 246.933 441.227 242.587 441.227 242.587L441.071 237.884ZM427.566 244.903L423.135 250.041V250.011C421.982 248.407 424.208 244.822 424.208 244.822L427.892 236.601C427.862 237.654 427.732 238.606 427.391 239.022C426.388 240.396 429.236 242.687 429.236 242.687C427.717 242.692 427.566 244.903 427.566 244.903Z" fill="url(#paint0_linear)"></path><path d="M349.545 177.533L347.124 182.231C346.358 182.165 345.602 182.007 344.873 181.759C343.719 181.415 342.65 180.829 341.739 180.041C340.827 179.253 340.093 178.28 339.585 177.188C337.424 172.415 340.998 169.332 342.663 168.42C344.327 167.508 345.876 166.47 347.124 169.463C347.908 171.493 348.562 173.571 349.084 175.684C349.375 176.781 349.545 177.533 349.545 177.533Z" fill="#CC818C"></path><path d="M426.437 201.967L422.572 207.722C422.572 207.722 404.31 216.434 407.799 206.218C409.332 201.706 409.513 198.412 409.237 196.132C409.237 196.107 409.237 196.091 409.237 196.066C408.876 193.214 407.804 191.976 407.804 191.976C407.804 191.976 425.604 182.862 422.953 189.093C422.412 190.388 422.196 191.796 422.326 193.194C422.545 195.207 423.198 197.148 424.241 198.884C424.868 199.982 425.603 201.015 426.437 201.967Z" fill="#CC818C"></path><path d="M420.878 315.966C420.878 315.966 423.505 326.994 422.382 328.794C421.259 330.594 421.379 334.654 421.379 334.654C421.379 334.654 419.259 350.415 418.452 351.017C417.789 351.603 417.211 352.278 416.732 353.022C416.732 353.022 418.176 356.591 417.309 358.065C417.175 358.289 416.973 358.465 416.732 358.566C415.379 359.138 410.376 356.601 407.529 355.057C407.299 354.932 407.104 354.753 406.958 354.535C406.813 354.318 406.722 354.069 406.693 353.809C406.665 353.55 406.7 353.287 406.794 353.043C406.889 352.799 407.041 352.582 407.238 352.41C407.067 352.068 407.019 351.678 407.103 351.305C407.187 350.932 407.398 350.6 407.699 350.365L408.451 349.783L408.276 349.578C408.05 349.312 407.915 348.982 407.888 348.635C407.861 348.287 407.944 347.94 408.125 347.643C408.451 347.096 408.767 346.139 408.852 344.43C409.057 340.489 410.065 338.975 410.065 338.975L409.459 320.989C409.516 320.014 409.516 319.036 409.459 318.061C409.358 316.954 407.488 317.685 407.188 317.38C406.887 317.074 406.832 315.64 406.025 315.234C405.653 314.908 405.396 314.47 405.293 313.986C404.936 312.851 404.865 311.646 405.087 310.477C405.139 310.196 405.133 309.908 405.068 309.631C405.003 309.353 404.882 309.091 404.711 308.863C403.804 307.65 404.105 303.514 404.105 303.514L402.711 294.852C400.49 302.2 397.668 311.053 396.731 311.695C396.281 311.964 395.912 312.35 395.663 312.811C395.415 313.273 395.295 313.793 395.317 314.317C396.631 315.936 396.124 322.909 396.124 322.909C396.124 322.909 396.124 342.199 395.177 343.517C394.229 344.836 392.395 348.891 392.395 348.891C392.395 348.891 397.809 353.709 393.548 356.14H393.502C389.156 358.566 380.168 351.799 380.168 351.799L381.106 350.861L381.381 350.585L380.319 349.001C379.276 347.182 383.366 343.748 383.366 343.748C383.366 343.748 382.274 339.502 382.675 339.301C383.076 339.101 383.366 335.261 383.366 335.261C383.366 335.261 382.364 321.32 382.775 320.006C382.83 319.697 382.813 319.38 382.726 319.079C382.639 318.777 382.484 318.499 382.274 318.267C381.722 317.476 381.45 316.523 381.502 315.56C381.589 314.729 381.35 313.897 380.835 313.239C379.622 311.926 380.835 306.271 380.835 306.271L381.837 298.792V286.916C381.851 284.624 382.281 282.353 383.106 280.214C383.718 278.48 384.089 276.67 384.209 274.835C384.539 271.005 386.6 267.285 387.983 265.165C388.715 264.042 389.262 263.37 389.262 263.37L421.585 262.107C421.585 262.107 422.086 263.546 422.627 265.546C422.738 265.982 422.848 266.443 422.953 266.924C423.63 270.032 424.036 273.882 422.668 276.048C422.482 276.342 422.314 276.646 422.166 276.96C420.316 280.9 421.58 285.848 421.58 285.848C421.58 285.848 419.966 297.057 419.259 298.882C418.757 300.17 419.219 301.97 419.534 302.892C419.682 303.344 419.758 303.816 419.76 304.291V308.286C419.76 308.286 420.572 311.62 420.166 312.532C419.76 313.445 420.878 315.966 420.878 315.966Z" fill="#444053"></path><path opacity="0.1" d="M422.368 276.369C422.181 276.66 422.013 276.963 421.867 277.276L420.047 277.176C420.223 276.238 418.984 267.451 418.984 267.451L422.649 267.245C423.326 270.348 423.737 274.198 422.368 276.369Z" fill="black"></path><path d="M422.669 276.063C422.483 276.357 422.316 276.661 422.168 276.975L420.348 276.87C420.523 275.938 419.285 267.145 419.285 267.145L422.95 266.939C423.631 270.047 424.037 273.897 422.669 276.063Z" fill="#444053"></path><path opacity="0.05" d="M422.669 276.063C422.483 276.357 422.316 276.661 422.168 276.975L420.348 276.87C420.523 275.938 419.285 267.145 419.285 267.145L422.95 266.939C423.631 270.047 424.037 273.897 422.669 276.063Z" fill="black"></path><path opacity="0.1" d="M417.314 358.085C417.181 358.309 416.979 358.485 416.738 358.586C415.385 359.158 410.382 356.621 407.534 355.077C407.179 354.88 406.909 354.559 406.777 354.175C408.402 353.879 409.464 355.679 409.464 355.679C409.735 355.509 410.037 355.395 410.352 355.344C410.668 355.292 410.99 355.305 411.301 355.38C411.612 355.455 411.904 355.592 412.161 355.781C412.418 355.971 412.635 356.211 412.798 356.486C414.186 358.531 417.164 357.669 417.164 357.669L417.314 358.085Z" fill="black"></path><path d="M418.152 364.276C417.851 365.188 415.575 365.188 415.575 365.188C415.575 365.188 411.51 366.351 409.69 367.259C407.87 368.166 406.637 367.69 406.637 367.69C402.472 368.647 397.113 366.983 395.499 366.652C393.885 366.321 393.253 364.231 395.248 363.825C395.504 363.772 395.754 363.695 395.995 363.594C396.995 363.162 397.86 362.469 398.501 361.589C399.852 360.291 401.273 359.067 402.757 357.924C403.779 357.166 404.679 356.254 405.424 355.222C407.8 353.127 409.49 356.004 409.49 356.004C409.761 355.835 410.063 355.721 410.379 355.67C410.694 355.619 411.017 355.632 411.328 355.708C411.638 355.783 411.931 355.921 412.187 356.111C412.444 356.301 412.66 356.541 412.823 356.817C414.212 358.862 417.189 357.995 417.189 357.995C417.189 357.995 417.726 359.363 417.976 360.346C418.037 360.596 418.102 360.907 418.162 361.258C418.297 362.276 418.382 363.594 418.152 364.276Z" fill="#FF748F"></path><path d="M411.205 357.889C411.358 357.889 411.481 357.766 411.481 357.614C411.481 357.461 411.358 357.338 411.205 357.338C411.053 357.338 410.93 357.461 410.93 357.614C410.93 357.766 411.053 357.889 411.205 357.889Z" fill="#575988"></path><path d="M408.83 360.11C408.983 360.11 409.106 359.987 409.106 359.834C409.106 359.682 408.983 359.559 408.83 359.559C408.678 359.559 408.555 359.682 408.555 359.834C408.555 359.987 408.678 360.11 408.83 360.11Z" fill="#575988"></path><path d="M406.42 362.105C406.572 362.105 406.696 361.982 406.696 361.83C406.696 361.677 406.572 361.554 406.42 361.554C406.268 361.554 406.145 361.677 406.145 361.83C406.145 361.982 406.268 362.105 406.42 362.105Z" fill="#575988"></path><path d="M407.666 361.213C407.819 361.213 407.942 361.09 407.942 360.937C407.942 360.785 407.819 360.662 407.666 360.662C407.514 360.662 407.391 360.785 407.391 360.937C407.391 361.09 407.514 361.213 407.666 361.213Z" fill="#575988"></path><path d="M410.069 358.932C410.221 358.932 410.344 358.809 410.344 358.656C410.344 358.504 410.221 358.381 410.069 358.381C409.916 358.381 409.793 358.504 409.793 358.656C409.793 358.809 409.916 358.932 410.069 358.932Z" fill="#575988"></path><path d="M418.152 364.276C417.851 365.188 415.575 365.188 415.575 365.188C415.575 365.188 411.51 366.351 409.69 367.259C407.871 368.166 406.637 367.69 406.637 367.69C402.472 368.647 397.113 366.983 395.499 366.652C393.885 366.321 393.253 364.231 395.248 363.825C395.504 363.772 395.754 363.695 395.995 363.594C397.757 364.201 399.597 364.55 401.459 364.632C405.575 364.807 408.833 364.632 408.833 364.632L412.999 363.293C413.787 362.815 414.663 362.498 415.575 362.361C416.498 362.173 417.37 361.794 418.137 361.248C418.297 362.276 418.383 363.594 418.152 364.276Z" fill="#DCE6F2"></path><path opacity="0.5" d="M407.786 366.888C407.553 366.889 407.322 366.867 407.094 366.822L407.154 366.527C408.006 366.657 408.877 366.535 409.66 366.176C410.031 366.03 410.402 365.855 410.763 365.674C411.124 365.494 411.63 365.268 412.082 365.103L412.493 364.963C412.718 364.882 412.949 364.807 413.169 364.712C413.295 364.662 413.42 364.602 413.54 364.541C413.836 364.387 414.149 364.267 414.473 364.186C414.639 364.155 414.806 364.133 414.974 364.12C415.129 364.11 415.283 364.092 415.435 364.065C415.739 363.989 416.033 363.879 416.312 363.739C416.612 363.585 416.928 363.468 417.255 363.388L417.475 363.353C417.713 363.347 417.942 363.263 418.127 363.113L418.353 363.318C418.123 363.52 417.831 363.639 417.526 363.654L417.315 363.689C417.011 363.764 416.717 363.873 416.438 364.015C416.137 364.164 415.821 364.28 415.495 364.361C415.33 364.394 415.162 364.414 414.994 364.421C414.836 364.433 414.679 364.453 414.523 364.481C414.222 364.559 413.931 364.672 413.656 364.817L413.275 364.993C413.044 365.088 412.803 365.168 412.573 365.248L412.172 365.389C411.731 365.549 411.3 365.755 410.879 365.95C410.457 366.146 410.137 366.301 409.756 366.451C409.132 366.718 408.464 366.866 407.786 366.888Z" fill="#575988"></path><path opacity="0.1" d="M408.758 316.698C408.758 316.698 410.853 313.69 414.442 313.69C418.032 313.69 419.566 313.284 419.566 313.284C419.566 313.284 417.27 314.648 415.681 314.823C414.092 314.999 408.758 316.698 408.758 316.698Z" fill="black"></path><path opacity="0.1" d="M409.973 317.405C409.973 317.405 411.868 316.091 412.95 316.041C414.033 315.991 414.956 315.891 414.956 315.891C414.448 316.247 413.886 316.52 413.291 316.698C412.404 316.949 409.973 317.405 409.973 317.405Z" fill="black"></path><path opacity="0.1" d="M410.395 318.312C410.395 318.312 413.247 318.538 413.272 319.315L410.395 318.312Z" fill="black"></path><path opacity="0.1" d="M383.793 275.702C383.943 275.727 386.495 273.05 386.67 271.992C386.81 271.323 387.208 270.735 387.778 270.358C387.778 270.358 389.422 271.015 387.959 273.03C386.495 275.045 383.793 275.702 383.793 275.702Z" fill="black"></path><path opacity="0.1" d="M422.929 189.083C422.347 190.457 421.836 190.587 421.926 191.896C421.249 192.613 420.471 193.226 419.615 193.715C417.81 194.788 415.845 196.889 413.6 196.889C412.095 196.89 410.603 196.607 409.203 196.056C408.842 193.204 407.77 191.966 407.77 191.966C407.77 191.966 425.575 182.852 422.929 189.083Z" fill="black"></path><path d="M425.656 184.236C425.656 186.615 424.95 188.941 423.628 190.92C422.306 192.898 420.427 194.44 418.229 195.351C416.03 196.262 413.611 196.5 411.278 196.036C408.944 195.571 406.8 194.426 405.118 192.743C403.435 191.06 402.289 188.917 401.825 186.583C401.361 184.249 401.599 181.83 402.51 179.632C403.42 177.433 404.962 175.554 406.941 174.232C408.919 172.91 411.245 172.205 413.625 172.205C416.816 172.205 419.876 173.472 422.132 175.729C424.388 177.985 425.656 181.045 425.656 184.236Z" fill="#CC818C"></path><path opacity="0.1" d="M426.437 201.967L422.572 207.722C422.572 207.722 404.31 216.434 407.799 206.218C409.332 201.706 409.513 198.412 409.237 196.132H409.267C409.483 196.887 409.606 197.667 409.633 198.453C409.688 200.027 409.728 202.017 413.644 202.673C420.16 203.766 423.639 199.696 424.251 198.899C424.875 199.992 425.608 201.019 426.437 201.967Z" fill="black"></path><path opacity="0.1" d="M349.543 177.534L347.121 182.231C346.355 182.165 345.599 182.007 344.871 181.759L344.66 181.509C345.663 181.89 348.976 175.599 348.976 175.599L349.082 175.684C349.372 176.782 349.543 177.534 349.543 177.534Z" fill="black"></path><path opacity="0.1" d="M422.627 265.561C414.827 268.95 387.848 266.062 387.848 266.062C387.928 265.775 387.974 265.478 387.983 265.18C388.715 264.057 389.261 263.385 389.261 263.385L421.584 262.122C421.584 262.122 422.111 263.561 422.627 265.561Z" fill="black"></path><path d="M409.249 196.412L405.65 197.951C405.107 197.947 404.576 197.787 404.121 197.492C403.665 197.196 403.304 196.776 403.078 196.282C402.241 194.543 399.289 196.282 399.289 196.282C399.289 196.282 390.265 195.6 386.937 197.285C386.937 197.285 381.558 195.009 380.801 194.858C380.044 194.708 378.906 194.101 378.375 194.252C377.843 194.402 377.167 193.249 376.786 193.344C376.405 193.44 376.254 192.587 375.041 192.282C373.828 191.976 373.377 192.357 372.033 190.993C370.69 189.63 359.606 184.251 359.606 184.251L354.594 180.16L349.29 175.919C349.29 175.919 345.956 182.206 344.969 181.825L355.045 193.951C355.045 193.951 362.318 200.312 367.321 202.358C372.324 204.403 371.943 205.01 371.943 205.01C371.943 205.01 387.097 212.74 389.443 212.589C391.789 212.439 391.348 228.405 390.346 230.982C389.343 233.558 387.774 252.196 387.774 252.196C387.774 252.196 386.27 256.137 387.849 258.864C387.849 258.864 388.225 264.473 387.849 265.456C387.849 265.456 414.994 268.358 422.699 264.924C422.699 264.924 423.837 252.347 422.699 250.758C421.561 249.169 423.761 245.624 423.761 245.624L428.609 234.792L440.429 222.896C440.429 222.896 442.244 212.97 434.138 206.609L428.759 201.831C428.759 201.831 425.752 199.23 424.869 199.064C423.987 198.899 424.313 199.064 424.313 199.064C424.313 199.064 420.804 204.182 413.605 202.969C409.705 202.313 409.665 200.322 409.595 198.753C409.574 197.962 409.458 197.176 409.249 196.412Z" fill="#67647E"></path><path opacity="0.1" d="M424.06 237.198C424.06 237.198 407.387 237.879 404.059 243.118C404.059 243.118 408.38 241.068 412.24 241.674C416.1 242.281 424.06 237.198 424.06 237.198Z" fill="black"></path><path opacity="0.1" d="M405.648 255.455C405.648 255.455 413.529 255.986 415.198 254.317C416.867 252.647 416.872 251.665 416.872 251.665L405.648 255.455Z" fill="black"></path><path opacity="0.1" d="M425.655 221.131C425.655 221.131 418.983 229.011 427.094 232.42L425.655 221.131Z" fill="black"></path><path opacity="0.1" d="M386.18 205.907C386.18 205.907 388.606 210.855 389.819 211.18L386.18 205.907Z" fill="black"></path><path opacity="0.1" d="M377.996 203.781C377.996 203.781 384.057 209.24 385.195 209.767C385.195 209.767 378.903 203.781 377.996 203.781Z" fill="black"></path><path opacity="0.1" d="M402.165 198.558C402.165 198.558 396.33 207.27 400.119 212.594C400.119 212.574 397.999 206.283 402.165 198.558Z" fill="black"></path><path d="M416.872 264.548L415.088 266.228L414.837 266.458L412.772 268.413C412.626 268.523 412.481 268.634 412.331 268.734C403.924 274.75 402.24 265.606 402.24 265.606C402.24 265.606 398.53 268.032 397.999 266.062C397.467 264.092 406.636 261.29 408.025 261.44C408.146 261.453 408.269 261.453 408.39 261.44C409.053 261.33 409.691 261.104 410.275 260.773L410.681 260.558C411.148 260.295 411.602 260.009 412.04 259.701L416.872 264.548Z" fill="#CC818C"></path><path opacity="0.1" d="M425.937 184.236C425.942 186.323 425.403 188.375 424.375 190.19C423.347 192.006 421.864 193.523 420.072 194.593C419.904 194.311 419.757 194.018 419.631 193.715C419.2 192.713 418.934 191.63 418.498 190.622C418.021 189.522 417.341 188.522 416.493 187.675C416.349 187.507 416.164 187.379 415.957 187.304C415.762 187.277 415.563 187.29 415.374 187.343C415.184 187.395 415.007 187.486 414.854 187.61C414.343 187.955 413.774 188.205 413.174 188.346C412.874 188.415 412.561 188.405 412.266 188.317C411.971 188.23 411.704 188.067 411.49 187.845C411.019 187.284 411.084 186.462 411.219 185.745C411.515 184.176 412.006 182.632 412.011 181.038C412.016 179.443 411.405 177.729 410.006 176.937C408.783 176.24 407.264 176.436 405.906 176.045C405.695 175.99 405.489 175.919 405.289 175.834C406.959 174.12 409.103 172.943 411.445 172.453C413.788 171.964 416.224 172.184 418.441 173.086C420.657 173.988 422.555 175.531 423.89 177.517C425.226 179.503 425.938 181.842 425.937 184.236Z" fill="black"></path><path d="M404.468 173.909C404.253 174.025 404.012 174.235 404.077 174.476C404.119 174.59 404.196 174.689 404.298 174.756C404.859 175.209 405.507 175.542 406.203 175.734C407.561 176.105 409.085 175.929 410.308 176.626C411.692 177.413 412.313 179.133 412.313 180.727C412.313 182.321 411.812 183.865 411.526 185.429C411.391 186.151 411.321 186.973 411.792 187.534C412.007 187.755 412.274 187.917 412.569 188.005C412.864 188.092 413.176 188.103 413.476 188.036C414.076 187.897 414.646 187.649 415.156 187.304C415.31 187.18 415.487 187.088 415.678 187.035C415.868 186.981 416.068 186.967 416.264 186.993C416.47 187.071 416.654 187.199 416.8 187.364C417.648 188.213 418.329 189.215 418.805 190.317C419.246 191.319 419.507 192.397 419.938 193.41C420.314 194.442 421.018 195.323 421.943 195.916C422.906 196.447 424.239 196.417 424.981 195.595C425.723 194.773 425.663 193.645 426.014 192.658C426.615 190.938 428.295 189.86 429.347 188.377C430.525 186.707 430.851 184.612 431.172 182.592C431.315 181.956 431.325 181.297 431.202 180.657C431.065 180.233 430.887 179.823 430.671 179.433C429.498 177.007 429.523 173.954 427.663 172.019C426.259 170.566 424.129 170.124 422.124 169.874C420.119 169.623 418.013 169.483 416.294 168.425C415.812 168.061 415.28 167.767 414.715 167.553C414.429 167.452 414.116 167.455 413.832 167.562C413.548 167.668 413.31 167.871 413.161 168.134C413.125 168.289 413.055 168.433 412.955 168.555C412.865 168.607 412.765 168.637 412.661 168.644C412.557 168.65 412.454 168.631 412.359 168.59L409.692 167.874L409.997 169.217C409.028 169.258 408.062 169.087 407.165 168.716C407.115 169.478 407.972 169.969 408.238 170.681C408.334 171.005 408.338 171.349 408.249 171.674C408.161 172 407.983 172.295 407.737 172.526C406.769 173.498 405.561 173.313 404.468 173.909Z" fill="#585268"></path><path opacity="0.1" d="M393.658 354.937L393.547 356.145H393.502C389.156 358.571 380.168 351.804 380.168 351.804L381.105 350.866C381.259 351.037 381.375 351.238 381.446 351.457C381.517 351.675 381.541 351.906 381.516 352.134L383.351 352.235L385.547 354.606C385.547 354.606 391.487 355.293 393.096 354.912L393.658 354.937Z" fill="black"></path><path d="M392.897 361.524C390.07 362.155 380.169 362.11 380.169 362.11L374.615 362.987C374.615 362.987 365.09 363.9 364.033 360.942C362.975 357.984 364.865 358.17 364.865 358.17H364.94L368.905 357.849C368.905 357.849 373.918 355.904 375.778 354.566C377.233 353.432 378.608 352.2 379.893 350.876C379.893 350.876 381.548 350.555 381.518 352.47L383.352 352.571L385.548 354.947C385.548 354.947 391.488 355.633 393.097 355.247H393.659L393.403 358.18L393.473 358.265C393.854 358.726 395.423 360.962 392.897 361.524Z" fill="#FF748F"></path><path d="M382.643 354.45C382.795 354.45 382.919 354.327 382.919 354.175C382.919 354.023 382.795 353.899 382.643 353.899C382.491 353.899 382.367 354.023 382.367 354.175C382.367 354.327 382.491 354.45 382.643 354.45Z" fill="#575988"></path><path d="M375.522 357.538C375.674 357.538 375.798 357.415 375.798 357.263C375.798 357.11 375.674 356.987 375.522 356.987C375.37 356.987 375.246 357.11 375.246 357.263C375.246 357.415 375.37 357.538 375.522 357.538Z" fill="#575988"></path><path d="M371.854 358.651C372.006 358.651 372.13 358.528 372.13 358.376C372.13 358.223 372.006 358.1 371.854 358.1C371.702 358.1 371.578 358.223 371.578 358.376C371.578 358.528 371.702 358.651 371.854 358.651Z" fill="#575988"></path><path d="M377.393 356.947C377.545 356.947 377.669 356.823 377.669 356.671C377.669 356.519 377.545 356.396 377.393 356.396C377.241 356.396 377.117 356.519 377.117 356.671C377.117 356.823 377.241 356.947 377.393 356.947Z" fill="#575988"></path><path d="M373.682 358.095C373.834 358.095 373.958 357.971 373.958 357.819C373.958 357.667 373.834 357.543 373.682 357.543C373.53 357.543 373.406 357.667 373.406 357.819C373.406 357.971 373.53 358.095 373.682 358.095Z" fill="#575988"></path><path d="M379.28 356.07C379.432 356.07 379.555 355.946 379.555 355.794C379.555 355.642 379.432 355.518 379.28 355.518C379.127 355.518 379.004 355.642 379.004 355.794C379.004 355.946 379.127 356.07 379.28 356.07Z" fill="#575988"></path><path d="M381.151 355.257C381.303 355.257 381.426 355.134 381.426 354.982C381.426 354.829 381.303 354.706 381.151 354.706C380.998 354.706 380.875 354.829 380.875 354.982C380.875 355.134 380.998 355.257 381.151 355.257Z" fill="#575988"></path><path d="M392.897 361.524C390.07 362.155 380.169 362.11 380.169 362.11L374.615 362.987C374.615 362.987 365.09 363.9 364.033 360.942C362.975 357.985 364.865 358.17 364.865 358.17H364.94C365.546 358.957 366.765 359.849 369.156 359.894L376.003 360.17L383.097 359.669C383.097 359.669 389.744 359.473 390.827 359.243C391.736 358.998 392.622 358.673 393.473 358.27C393.854 358.726 395.423 360.962 392.897 361.524Z" fill="#DCE6F2"></path><path opacity="0.5" d="M375.15 362.321C374.771 362.326 374.393 362.279 374.027 362.18L374.108 361.89C375.042 362.091 376.012 362.047 376.925 361.764C377.261 361.674 377.591 361.579 377.927 361.479C378.534 361.286 379.152 361.131 379.777 361.012C380.788 360.881 381.809 360.851 382.825 360.922H383.041C386.078 361.082 389.123 360.946 392.134 360.516C392.848 360.467 393.529 360.193 394.079 359.734L394.294 359.95C393.7 360.454 392.961 360.758 392.184 360.817C389.153 361.249 386.088 361.385 383.03 361.223H382.81C381.807 361.153 380.799 361.183 379.802 361.313C379.19 361.427 378.586 361.58 377.993 361.769C377.657 361.87 377.321 361.97 376.99 362.055C376.39 362.218 375.772 362.308 375.15 362.321Z" fill="#575988"></path><path opacity="0.1" d="M416.872 264.548L415.088 266.228L410.656 260.553C411.123 260.29 411.576 260.004 412.015 259.696L416.872 264.548Z" fill="black"></path><path d="M436.963 218.053L440.472 222.901V227.979C440.472 227.979 442.062 233.358 440.472 238.737L440.643 243.434C440.643 243.434 438.954 247.75 439.56 248.813C439.56 248.813 439.259 251.996 435.169 254.192C431.078 256.387 426.436 261.591 426.436 261.591C426.436 261.591 424.692 264.924 419.995 264.167L415.523 266.062L410.375 259.47L417.343 255.68C417.343 255.68 419.769 252.427 421.208 252.577L427.118 245.68C427.118 245.68 427.268 243.484 428.782 243.484C428.782 243.484 425.98 241.213 426.963 239.85C427.945 238.486 427.118 232.42 427.118 232.42L436.963 218.053Z" fill="#67647E"></path><path opacity="0.1" d="M430.449 240.15C430.449 240.15 438.405 240 439.387 242.045C440.37 244.09 432.85 239.012 430.449 240.15Z" fill="black"></path><path opacity="0.1" d="M414.872 266.062C414.873 266.195 414.862 266.328 414.837 266.458C414.746 267.068 414.446 267.628 413.99 268.043C413.533 268.457 412.947 268.702 412.331 268.734H412.191C411.481 268.734 410.8 268.452 410.298 267.95C409.796 267.448 409.514 266.767 409.514 266.057C409.514 265.762 409.565 265.468 409.664 265.19C408.401 264.187 408.331 262.343 408.366 261.43C409.028 261.32 409.666 261.094 410.251 260.764C410.58 261.711 411.023 262.614 411.569 263.456C411.773 263.407 411.981 263.382 412.191 263.38C412.543 263.38 412.891 263.45 413.217 263.584C413.542 263.719 413.838 263.917 414.087 264.166C414.336 264.415 414.534 264.711 414.668 265.036C414.803 265.361 414.872 265.71 414.872 266.062Z" fill="black"></path><path d="M410.489 260.162C410.489 260.162 408.695 260.568 408.695 260.894C408.695 261.22 408.289 264.177 410.259 265.405C412.229 266.634 412.028 263.711 412.028 263.711C412.028 263.711 410.334 261.114 410.489 260.162Z" fill="#575988"></path><path d="M412.493 268.739C413.972 268.739 415.17 267.541 415.17 266.062C415.17 264.584 413.972 263.385 412.493 263.385C411.015 263.385 409.816 264.584 409.816 266.062C409.816 267.541 411.015 268.739 412.493 268.739Z" fill="#E4AAB4"></path><path d="M412.491 268.358C413.759 268.358 414.787 267.33 414.787 266.062C414.787 264.794 413.759 263.766 412.491 263.766C411.223 263.766 410.195 264.794 410.195 266.062C410.195 267.33 411.223 268.358 412.491 268.358Z" fill="#DCE6F2"></path><path opacity="0.1" d="M402.065 267.1C402.065 267.1 407.724 271.792 414.993 268.814V271.09C414.993 271.09 410.145 274.424 405.754 272.404C401.363 270.383 402.065 267.1 402.065 267.1Z" fill="black"></path><path opacity="0.1" d="M402.065 266.493C402.065 266.493 407.724 271.19 414.993 268.208V270.484C414.993 270.484 410.145 273.817 405.754 271.797C401.363 269.777 402.065 266.493 402.065 266.493Z" fill="black"></path><path d="M402.065 266.493C402.065 266.493 407.724 271.19 414.993 268.208V270.484C414.993 270.484 410.145 273.817 405.754 271.797C401.363 269.777 402.065 266.493 402.065 266.493Z" fill="#444053"></path><path opacity="0.05" d="M402.214 266.493C402.214 266.493 407.873 271.19 415.147 268.208V270.484C415.147 270.484 410.3 273.817 405.903 271.797C401.507 269.777 402.214 266.493 402.214 266.493Z" fill="black"></path><path opacity="0.1" d="M384.285 350.866C384.285 350.866 391.865 352.26 392.973 352.561C394.08 352.861 392.672 353.393 392.672 353.393C392.672 353.393 385.754 352.155 384.285 350.866Z" fill="black"></path><path opacity="0.1" d="M384.109 346.851C384.235 346.851 389.263 345.437 390.345 343.016L384.109 346.851Z" fill="black"></path><path opacity="0.1" d="M391.441 317.861C391.441 317.861 393.477 320.538 394.79 320.463C396.103 320.387 392.634 317.761 391.441 317.861Z" fill="black"></path><path opacity="0.1" d="M392.57 322.323C392.57 322.323 393.428 324.212 394.691 323.606L392.57 322.323Z" fill="black"></path><path opacity="0.05" d="M397.363 280.715L402.737 294.887C402.737 294.887 403.494 285.768 401.895 283.041C401.44 282.261 400.772 281.628 399.969 281.215C399.166 280.803 398.262 280.63 397.363 280.715Z" fill="black"></path><g opacity="0.1"><path opacity="0.1" d="M410.568 168.425L410.522 168.219L409.66 167.989L409.755 168.41C410.026 168.43 410.297 168.435 410.568 168.425Z" fill="black"></path><path opacity="0.1" d="M408.198 171.844L408.288 171.764C408.535 171.533 408.713 171.238 408.802 170.913C408.89 170.587 408.886 170.242 408.79 169.919C408.685 169.667 408.54 169.435 408.359 169.232C407.934 169.148 407.518 169.026 407.115 168.866C407.065 169.623 407.917 170.114 408.183 170.826C408.306 171.153 408.312 171.513 408.198 171.844Z" fill="black"></path><path opacity="0.1" d="M422.528 195.139C421.594 194.55 420.88 193.669 420.498 192.632C420.072 191.63 419.806 190.547 419.37 189.544C418.894 188.443 418.214 187.441 417.365 186.592C417.22 186.425 417.036 186.297 416.829 186.221C416.634 186.195 416.436 186.209 416.246 186.262C416.057 186.314 415.88 186.404 415.726 186.527C415.216 186.872 414.646 187.122 414.047 187.264C413.746 187.331 413.434 187.321 413.139 187.233C412.844 187.145 412.576 186.983 412.362 186.762C411.891 186.201 411.956 185.374 412.091 184.657C412.387 183.093 412.879 181.544 412.884 179.955C412.889 178.366 412.277 176.641 410.878 175.854C409.655 175.157 408.136 175.353 406.778 174.962C406.081 174.77 405.431 174.437 404.868 173.984C404.832 173.955 404.799 173.923 404.768 173.889C404.654 173.933 404.543 173.985 404.437 174.044C404.216 174.16 403.981 174.37 404.041 174.611C404.086 174.725 404.165 174.823 404.266 174.892C404.827 175.346 405.476 175.678 406.171 175.869C407.53 176.24 409.049 176.065 410.272 176.761C411.655 177.548 412.277 179.268 412.277 180.862C412.277 182.456 411.776 184 411.485 185.564C411.35 186.286 411.284 187.108 411.756 187.67C411.97 187.891 412.237 188.053 412.532 188.141C412.827 188.228 413.14 188.239 413.44 188.171C414.04 188.032 414.609 187.784 415.119 187.439C415.272 187.315 415.449 187.223 415.639 187.17C415.828 187.117 416.027 187.102 416.222 187.128C416.429 187.205 416.613 187.333 416.758 187.499C417.605 188.35 418.285 189.351 418.764 190.452C419.205 191.454 419.465 192.532 419.897 193.545C420.272 194.577 420.977 195.458 421.902 196.051C422.859 196.583 424.198 196.553 424.909 195.73C425.107 195.507 425.26 195.249 425.361 194.968C424.956 195.27 424.473 195.446 423.97 195.477C423.467 195.507 422.966 195.39 422.528 195.139Z" fill="black"></path><path opacity="0.1" d="M426.859 191.284C427.616 190.327 428.614 189.509 429.326 188.507C429.466 188.306 429.596 188.096 429.717 187.885C428.799 189.053 427.541 189.981 426.859 191.284Z" fill="black"></path></g></g><defs><linearGradient id="paint0_linear" x1="389.784" y1="367.98" x2="389.784" y2="165.768" gradientUnits="userSpaceOnUse"><stop stop-color="#808080" stop-opacity="0.25"></stop><stop offset="0.54" stop-color="#808080" stop-opacity="0.12"></stop><stop offset="1" stop-color="#808080" stop-opacity="0.1"></stop></linearGradient><clipPath id="clip0"><rect width="515" height="393" fill="white"></rect></clipPath></defs></svg> 